<?xml version="1.0" standalone="no"?>
<!DOCTYPE svg PUBLIC "-//W3C//DTD SVG 20010904//EN"
 "http://www.w3.org/TR/2001/REC-SVG-20010904/DTD/svg10.dtd">
<svg version="1.0" xmlns="http://www.w3.org/2000/svg"
 width="50.000000pt" height="50.000000pt" viewBox="0 0 50.000000 50.000000"
 preserveAspectRatio="xMidYMid meet">

<g transform="translate(0.000000,50.000000) scale(0.100000,-0.100000)"
fill="#000000" stroke="none">
<path d="M219 449 c-15 -6 -32 -22 -38 -37 -15 -36 -9 -118 12 -166 29 -66 24
-80 -37 -109 -48 -23 -86 -58 -86 -79 0 -5 49 -8 109 -8 l110 0 -6 34 c-3 22
1 46 11 67 9 17 16 38 16 46 0 7 8 32 19 56 12 27 18 62 17 101 -1 50 -5 61
-26 77 -33 24 -69 30 -101 18z"/>
<path d="M351 186 c-87 -48 -50 -186 49 -186 51 0 100 49 100 99 0 75 -83 124
-149 87z m104 -31 c50 -49 15 -135 -55 -135 -41 0 -80 39 -80 80 0 70 86 105
135 55z"/>
<path d="M418 108 c-23 -18 -30 -19 -43 -8 -24 20 -31 2 -8 -22 l21 -21 36 28
c20 15 36 31 36 36 0 14 -13 10 -42 -13z"/>
</g>
</svg>
