<?xml version="1.0" standalone="no"?>
<!DOCTYPE svg PUBLIC "-//W3C//DTD SVG 20010904//EN"
 "http://www.w3.org/TR/2001/REC-SVG-20010904/DTD/svg10.dtd">
<svg version="1.0" xmlns="http://www.w3.org/2000/svg"
 width="60.000000pt" height="60.000000pt" viewBox="0 0 60.000000 60.000000"
 preserveAspectRatio="xMidYMid meet">

<g transform="translate(0.000000,60.000000) scale(0.100000,-0.100000)"
fill="#000000" stroke="none">
<path d="M273 539 c-16 -16 -25 -19 -39 -11 -25 12 -44 5 -44 -17 0 -22 -19
-41 -41 -41 -22 0 -29 -19 -17 -43 7 -14 4 -25 -13 -43 l-22 -24 22 -24 c17
-18 20 -29 13 -43 -12 -24 -5 -43 17 -43 22 0 41 -19 41 -41 0 -22 19 -29 43
-17 14 7 25 4 43 -13 l24 -22 24 22 c18 17 29 20 43 13 24 -12 43 -5 43 17 0
22 19 41 41 41 22 0 29 19 17 43 -7 14 -4 25 13 43 l22 24 -22 24 c-17 18 -20
29 -13 43 12 24 5 43 -17 43 -22 0 -41 19 -41 41 0 22 -19 29 -43 17 -14 -7
-24 -5 -41 11 -27 26 -27 26 -53 0z m123 -130 c7 -12 -93 -119 -111 -119 -14
0 -65 53 -65 67 0 24 22 24 46 2 l25 -23 42 42 c44 45 52 48 63 31z"/>
<path d="M135 134 c-21 -50 -20 -54 18 -54 23 0 41 -8 57 -25 13 -14 26 -25
29 -25 3 0 14 21 25 46 18 44 18 45 0 59 -11 8 -28 13 -40 10 -11 -2 -29 2
-40 10 -28 21 -32 19 -49 -21z"/>
<path d="M416 155 c-11 -8 -29 -12 -40 -10 -12 3 -29 -2 -40 -10 -18 -14 -18
-15 0 -59 11 -25 22 -46 25 -46 3 0 16 11 29 25 16 17 34 25 57 25 38 0 39 4
18 54 -17 40 -21 42 -49 21z"/>
</g>
</svg>
