<?xml version="1.0" standalone="no"?>
<!DOCTYPE svg PUBLIC "-//W3C//DTD SVG 20010904//EN"
 "http://www.w3.org/TR/2001/REC-SVG-20010904/DTD/svg10.dtd">
<svg version="1.0" xmlns="http://www.w3.org/2000/svg"
 width="48.000000pt" height="48.000000pt" viewBox="0 0 48.000000 48.000000"
 preserveAspectRatio="xMidYMid meet">

<g transform="translate(0.000000,48.000000) scale(0.100000,-0.100000)"
fill="#000000" stroke="none">
<path d="M52 388 c-17 -17 -17 -279 0 -296 8 -8 45 -12 100 -12 81 0 88 2 88
20 0 18 -7 20 -80 20 l-80 0 0 100 0 100 80 -50 80 -50 80 50 80 50 0 -43 c0
-31 6 -49 20 -62 20 -18 20 -17 20 71 0 57 -4 94 -12 102 -17 17 -359 17 -376
0z m333 -36 c-6 -5 -40 -27 -78 -50 l-67 -42 -68 42 c-37 23 -71 45 -76 50 -6
4 59 8 144 8 85 0 150 -4 145 -8z"/>
<path d="M400 152 l0 -32 -60 0 c-53 0 -60 -2 -60 -20 0 -18 7 -20 60 -20 59
0 60 0 60 -28 l0 -29 41 39 42 40 -42 41 -41 42 0 -33z"/>
</g>
</svg>
