<?xml version="1.0" standalone="no"?>
<!DOCTYPE svg PUBLIC "-//W3C//DTD SVG 20010904//EN"
 "http://www.w3.org/TR/2001/REC-SVG-20010904/DTD/svg10.dtd">
<svg version="1.0" xmlns="http://www.w3.org/2000/svg"
 width="100.000000pt" height="100.000000pt" viewBox="0 0 100.000000 100.000000"
 preserveAspectRatio="xMidYMid meet">

<g transform="translate(0.000000,100.000000) scale(0.100000,-0.100000)"
fill="#000000" stroke="none">
<path d="M433 991 c-78 -20 -145 -77 -189 -161 -27 -51 -24 -184 5 -270 45
-134 210 -425 248 -437 17 -6 131 171 192 297 65 134 94 244 87 324 -14 137
-118 240 -253 251 -32 2 -72 0 -90 -4z m151 -210 c26 -27 31 -39 31 -81 0 -43
-5 -54 -33 -82 -28 -28 -39 -33 -82 -33 -43 0 -54 5 -82 33 -28 28 -33 39 -33
81 0 52 25 92 70 112 37 16 96 3 129 -30z"/>
<path d="M235 304 c-138 -33 -215 -83 -215 -141 0 -112 332 -190 645 -152 183
22 315 86 315 151 0 34 -33 74 -81 98 -53 27 -212 65 -217 51 -2 -5 -34 -57
-73 -115 -100 -153 -118 -152 -219 1 -39 58 -70 110 -70 115 0 10 -12 9 -85
-8z"/>
</g>
</svg>
